<?xml version="1.0" standalone="no"?>
<!DOCTYPE svg PUBLIC "-//W3C//DTD SVG 20010904//EN"
 "http://www.w3.org/TR/2001/REC-SVG-20010904/DTD/svg10.dtd">
<svg version="1.0" xmlns="http://www.w3.org/2000/svg"
 width="346.000000pt" height="194.000000pt" viewBox="0 0 346.000000 194.000000"
 preserveAspectRatio="xMidYMid meet">

<g transform="translate(0.000000,194.000000) scale(0.100000,-0.100000)"
fill="#000000" stroke="none">
<path d="M1661 1707 c-169 -88 -136 -343 49 -387 145 -35 283 101 251 246 -30
134 -180 205 -300 141z m169 -52 c91 -47 104 -174 25 -243 -67 -60 -179 -45
-225 30 -42 69 -21 165 46 209 35 23 113 25 154 4z"/>
<path d="M1771 1568 c-34 -46 -43 -116 -17 -137 20 -17 39 11 32 46 -5 21 1
39 23 72 17 25 28 48 25 53 -11 18 -34 6 -63 -34z"/>
<path d="M541 1066 c-11 -12 -8 -38 15 -137 l28 -122 -39 -31 c-21 -17 -61
-42 -89 -56 -31 -15 -56 -36 -64 -52 -10 -21 -20 -28 -43 -28 -32 0 -69 -30
-69 -58 0 -10 7 -28 16 -40 15 -22 17 -22 300 -22 271 0 285 1 304 20 25 25
25 41 -1 74 -20 26 -21 26 -160 26 -101 0 -139 3 -139 12 0 7 -12 24 -27 40
-22 23 -24 30 -13 43 20 24 37 18 44 -15 4 -22 11 -30 26 -30 11 0 23 7 26 15
3 8 -12 94 -33 192 -39 182 -51 206 -82 169z"/>
<path d="M1317 792 c-10 -10 -28 -73 -42 -142 -23 -112 -24 -125 -10 -147 19
-28 65 -31 87 -5 15 16 58 206 58 255 0 49 -61 74 -93 39z"/>
<path d="M2890 712 c-78 -42 -74 -155 7 -188 21 -9 48 -25 60 -36 15 -14 29
-18 45 -14 39 10 175 102 180 123 14 54 -41 90 -92 59 -38 -22 -47 -20 -54 8
-13 52 -92 77 -146 48z"/>
<path d="M2375 574 c-38 -7 -134 -13 -212 -13 -140 -1 -143 -1 -159 -26 -10
-16 -14 -34 -10 -53 7 -27 5 -28 -34 -29 -67 -1 -70 -8 -70 -159 l0 -134 35
-1 c19 -1 41 -2 48 -3 29 -5 37 17 37 100 l0 84 270 0 c210 0 270 -3 270 -13
0 -6 -4 -28 -10 -47 -13 -45 8 -80 49 -80 35 0 42 10 65 83 l17 57 162 -2 162
-3 3 -88 3 -88 57 3 57 3 3 121 c4 169 7 165 -166 165 -72 -1 -132 3 -132 7 0
4 7 16 15 26 20 27 19 49 -6 80 l-20 26 -182 -1 c-104 -1 -212 -7 -252 -15z"/>
<path d="M284 477 c-2 -7 -3 -80 -2 -162 l3 -150 145 -5 c80 -3 200 -4 268 -2
l122 3 -2 162 -3 162 -263 3 c-209 2 -264 0 -268 -11z"/>
<path d="M1146 452 c-55 -1 -106 -8 -113 -14 -21 -17 -16 -75 6 -88 11 -5 78
-10 150 -10 143 0 161 7 161 59 0 51 -29 58 -204 53z"/>
</g>
</svg>
